# xmcd
#
# Track frame offsets:
#	150
#	12552
#	29565
#	40130
#	53097
#	66067
#	75787
#	93802
#	105000
#	114840
#	127329
#	137445
#	147675
#	159712
#
# Disc length: 2264 seconds
#
# Revision: 1
# Processed by: cddbd v1.5.2PL0 Copyright (c) Steve Scherf et al.
# Submitted via: EasyCDDAExtractor 6.5.0.1
#
DISCID=b008d60e
DTITLE=Various Artist - Country Roads - High Noon
DYEAR=1997
DGENRE=Country
TTITLE0=Don Williams - There's Never Been A Time
TTITLE1=Kenny Rogers - Something's Burning
TTITLE2=Patsy Cline - Stop Look And Listen
TTITLE3=Lynn Anderson - Rose Garden
TTITLE4=Merle Haggard - Swinging Doors
TTITLE5=Dave Dudley - Six Days On The Road
TTITLE6=Rick Nelson - Garden Party
TTITLE7=Conway Twitty - Hello Darlin'
TTITLE8=Willie Nelson - I Didn't Sleep A Wink
TTITLE9=Frankie Laine - High Noon
TTITLE10=Barbara Mandrell - Please Release Me
TTITLE11=Rick Nelson - Never Be Anyone Else But You
TTITLE12=Freddy Fender - Before The Next Teardrop Falls
TTITLE13=Jimmie Rodgers - Kisses Sweeter Than Wine
EXTD=SPMV 103002 CD no. 2
EXTT0=
EXTT1=
EXTT2=
EXTT3=
EXTT4=
EXTT5=
EXTT6=
EXTT7=
EXTT8=
EXTT9=
EXTT10=
EXTT11=
EXTT12=
EXTT13=
PLAYORDER=
